<mxfile host="app.diagrams.net" agent="Mozilla/5.0 (Windows NT 10.0; Win64; x64) AppleWebKit/537.36 (KHTML, like Gecko) Chrome/131.0.0.0 Safari/537.36" version="25.0.3">
  <diagram name="Page-1" id="kHVd_RP7JFbyk2b-Bbm4">
    <mxGraphModel dx="2261" dy="772" grid="1" gridSize="10" guides="1" tooltips="1" connect="1" arrows="1" fold="1" page="1" pageScale="1" pageWidth="827" pageHeight="1169" math="0" shadow="0">
      <root>
        <mxCell id="0" />
        <mxCell id="1" parent="0" />
        <mxCell id="-OJPL3VyTxTSW0nCCXy5-4" value="" style="edgeStyle=orthogonalEdgeStyle;rounded=0;orthogonalLoop=1;jettySize=auto;html=1;" edge="1" parent="1" source="-OJPL3VyTxTSW0nCCXy5-1" target="-OJPL3VyTxTSW0nCCXy5-2">
          <mxGeometry relative="1" as="geometry" />
        </mxCell>
        <mxCell id="-OJPL3VyTxTSW0nCCXy5-1" value="Start" style="ellipse;whiteSpace=wrap;html=1;" vertex="1" parent="1">
          <mxGeometry x="60" y="40" width="120" height="80" as="geometry" />
        </mxCell>
        <mxCell id="-OJPL3VyTxTSW0nCCXy5-5" value="" style="edgeStyle=orthogonalEdgeStyle;rounded=0;orthogonalLoop=1;jettySize=auto;html=1;" edge="1" parent="1" source="-OJPL3VyTxTSW0nCCXy5-2" target="-OJPL3VyTxTSW0nCCXy5-3">
          <mxGeometry relative="1" as="geometry" />
        </mxCell>
        <mxCell id="-OJPL3VyTxTSW0nCCXy5-2" value="Input which file to import data" style="shape=parallelogram;perimeter=parallelogramPerimeter;whiteSpace=wrap;html=1;fixedSize=1;" vertex="1" parent="1">
          <mxGeometry x="55" y="160" width="130" height="70" as="geometry" />
        </mxCell>
        <mxCell id="-OJPL3VyTxTSW0nCCXy5-8" value="" style="edgeStyle=orthogonalEdgeStyle;rounded=0;orthogonalLoop=1;jettySize=auto;html=1;" edge="1" parent="1" source="-OJPL3VyTxTSW0nCCXy5-3" target="-OJPL3VyTxTSW0nCCXy5-7">
          <mxGeometry relative="1" as="geometry" />
        </mxCell>
        <mxCell id="-OJPL3VyTxTSW0nCCXy5-3" value="Is option valid?" style="rhombus;whiteSpace=wrap;html=1;" vertex="1" parent="1">
          <mxGeometry x="70" y="270" width="100" height="90" as="geometry" />
        </mxCell>
        <mxCell id="-OJPL3VyTxTSW0nCCXy5-6" value="" style="endArrow=classic;html=1;rounded=0;exitX=1;exitY=0.5;exitDx=0;exitDy=0;entryX=0.938;entryY=0.6;entryDx=0;entryDy=0;entryPerimeter=0;edgeStyle=orthogonalEdgeStyle;" edge="1" parent="1" source="-OJPL3VyTxTSW0nCCXy5-3" target="-OJPL3VyTxTSW0nCCXy5-2">
          <mxGeometry width="50" height="50" relative="1" as="geometry">
            <mxPoint x="390" y="420" as="sourcePoint" />
            <mxPoint x="440" y="370" as="targetPoint" />
            <Array as="points">
              <mxPoint x="210" y="315" />
              <mxPoint x="210" y="202" />
            </Array>
          </mxGeometry>
        </mxCell>
        <mxCell id="-OJPL3VyTxTSW0nCCXy5-10" value="" style="edgeStyle=orthogonalEdgeStyle;rounded=0;orthogonalLoop=1;jettySize=auto;html=1;" edge="1" parent="1" source="-OJPL3VyTxTSW0nCCXy5-7" target="-OJPL3VyTxTSW0nCCXy5-9">
          <mxGeometry relative="1" as="geometry" />
        </mxCell>
        <mxCell id="-OJPL3VyTxTSW0nCCXy5-7" value="Read book data from excel into ADT variable" style="rounded=0;whiteSpace=wrap;html=1;" vertex="1" parent="1">
          <mxGeometry x="60" y="400" width="120" height="60" as="geometry" />
        </mxCell>
        <mxCell id="-OJPL3VyTxTSW0nCCXy5-12" value="" style="edgeStyle=orthogonalEdgeStyle;rounded=0;orthogonalLoop=1;jettySize=auto;html=1;" edge="1" parent="1" source="-OJPL3VyTxTSW0nCCXy5-9" target="-OJPL3VyTxTSW0nCCXy5-11">
          <mxGeometry relative="1" as="geometry" />
        </mxCell>
        <mxCell id="-OJPL3VyTxTSW0nCCXy5-9" value="Declare low = 0,&lt;div&gt;high=number of data&lt;/div&gt;" style="rounded=0;whiteSpace=wrap;html=1;" vertex="1" parent="1">
          <mxGeometry x="60" y="500" width="120" height="60" as="geometry" />
        </mxCell>
        <mxCell id="-OJPL3VyTxTSW0nCCXy5-21" value="" style="edgeStyle=orthogonalEdgeStyle;rounded=0;orthogonalLoop=1;jettySize=auto;html=1;" edge="1" parent="1" source="-OJPL3VyTxTSW0nCCXy5-11" target="-OJPL3VyTxTSW0nCCXy5-13">
          <mxGeometry relative="1" as="geometry" />
        </mxCell>
        <mxCell id="-OJPL3VyTxTSW0nCCXy5-11" value="Initialize variable to count compare &amp;amp; move/swap operation" style="rounded=0;whiteSpace=wrap;html=1;" vertex="1" parent="1">
          <mxGeometry x="60" y="610" width="120" height="60" as="geometry" />
        </mxCell>
        <mxCell id="-OJPL3VyTxTSW0nCCXy5-22" value="" style="edgeStyle=orthogonalEdgeStyle;rounded=0;orthogonalLoop=1;jettySize=auto;html=1;" edge="1" parent="1" source="-OJPL3VyTxTSW0nCCXy5-13" target="-OJPL3VyTxTSW0nCCXy5-14">
          <mxGeometry relative="1" as="geometry" />
        </mxCell>
        <mxCell id="-OJPL3VyTxTSW0nCCXy5-37" value="" style="edgeStyle=orthogonalEdgeStyle;rounded=0;orthogonalLoop=1;jettySize=auto;html=1;" edge="1" parent="1" source="-OJPL3VyTxTSW0nCCXy5-13" target="-OJPL3VyTxTSW0nCCXy5-36">
          <mxGeometry relative="1" as="geometry" />
        </mxCell>
        <mxCell id="-OJPL3VyTxTSW0nCCXy5-13" value="low &amp;lt; high?" style="rhombus;whiteSpace=wrap;html=1;" vertex="1" parent="1">
          <mxGeometry x="80" y="710" width="80" height="80" as="geometry" />
        </mxCell>
        <mxCell id="-OJPL3VyTxTSW0nCCXy5-23" value="" style="edgeStyle=orthogonalEdgeStyle;rounded=0;orthogonalLoop=1;jettySize=auto;html=1;" edge="1" parent="1" source="-OJPL3VyTxTSW0nCCXy5-14" target="-OJPL3VyTxTSW0nCCXy5-15">
          <mxGeometry relative="1" as="geometry" />
        </mxCell>
        <mxCell id="-OJPL3VyTxTSW0nCCXy5-14" value="Start quick sort process" style="rounded=0;whiteSpace=wrap;html=1;" vertex="1" parent="1">
          <mxGeometry x="60" y="830" width="120" height="60" as="geometry" />
        </mxCell>
        <mxCell id="-OJPL3VyTxTSW0nCCXy5-24" value="" style="edgeStyle=orthogonalEdgeStyle;rounded=0;orthogonalLoop=1;jettySize=auto;html=1;" edge="1" parent="1" source="-OJPL3VyTxTSW0nCCXy5-15" target="-OJPL3VyTxTSW0nCCXy5-16">
          <mxGeometry relative="1" as="geometry" />
        </mxCell>
        <mxCell id="-OJPL3VyTxTSW0nCCXy5-15" value="Set pivot = median of start , middle and last element of current array" style="rounded=0;whiteSpace=wrap;html=1;" vertex="1" parent="1">
          <mxGeometry x="60" y="920" width="120" height="60" as="geometry" />
        </mxCell>
        <mxCell id="-OJPL3VyTxTSW0nCCXy5-26" value="" style="edgeStyle=orthogonalEdgeStyle;rounded=0;orthogonalLoop=1;jettySize=auto;html=1;" edge="1" parent="1" source="-OJPL3VyTxTSW0nCCXy5-16" target="-OJPL3VyTxTSW0nCCXy5-17">
          <mxGeometry relative="1" as="geometry" />
        </mxCell>
        <mxCell id="-OJPL3VyTxTSW0nCCXy5-16" value="Compare and move element &amp;lt; pivot to left of pivot" style="rounded=0;whiteSpace=wrap;html=1;" vertex="1" parent="1">
          <mxGeometry x="60" y="1010" width="120" height="60" as="geometry" />
        </mxCell>
        <mxCell id="-OJPL3VyTxTSW0nCCXy5-28" value="" style="edgeStyle=orthogonalEdgeStyle;rounded=0;orthogonalLoop=1;jettySize=auto;html=1;" edge="1" parent="1" source="-OJPL3VyTxTSW0nCCXy5-17" target="-OJPL3VyTxTSW0nCCXy5-18">
          <mxGeometry relative="1" as="geometry" />
        </mxCell>
        <mxCell id="-OJPL3VyTxTSW0nCCXy5-17" value="Compare and move element &amp;gt; pivot to right of pivot" style="rounded=0;whiteSpace=wrap;html=1;" vertex="1" parent="1">
          <mxGeometry x="60" y="1100" width="120" height="60" as="geometry" />
        </mxCell>
        <mxCell id="-OJPL3VyTxTSW0nCCXy5-29" value="" style="edgeStyle=orthogonalEdgeStyle;rounded=0;orthogonalLoop=1;jettySize=auto;html=1;" edge="1" parent="1" source="-OJPL3VyTxTSW0nCCXy5-18" target="-OJPL3VyTxTSW0nCCXy5-19">
          <mxGeometry relative="1" as="geometry" />
        </mxCell>
        <mxCell id="-OJPL3VyTxTSW0nCCXy5-18" value="Do increment on compare and move counter based on operation count" style="rounded=0;whiteSpace=wrap;html=1;" vertex="1" parent="1">
          <mxGeometry x="60" y="1190" width="120" height="60" as="geometry" />
        </mxCell>
        <mxCell id="-OJPL3VyTxTSW0nCCXy5-30" value="" style="edgeStyle=orthogonalEdgeStyle;rounded=0;orthogonalLoop=1;jettySize=auto;html=1;" edge="1" parent="1" source="-OJPL3VyTxTSW0nCCXy5-19" target="-OJPL3VyTxTSW0nCCXy5-20">
          <mxGeometry relative="1" as="geometry" />
        </mxCell>
        <mxCell id="-OJPL3VyTxTSW0nCCXy5-39" style="edgeStyle=orthogonalEdgeStyle;rounded=0;orthogonalLoop=1;jettySize=auto;html=1;entryX=1;entryY=0.25;entryDx=0;entryDy=0;exitX=1;exitY=0.5;exitDx=0;exitDy=0;" edge="1" parent="1" source="-OJPL3VyTxTSW0nCCXy5-19" target="-OJPL3VyTxTSW0nCCXy5-32">
          <mxGeometry relative="1" as="geometry" />
        </mxCell>
        <mxCell id="-OJPL3VyTxTSW0nCCXy5-19" value="Current compare/move operation is&amp;nbsp;&lt;div&gt;100,500,1000?&lt;/div&gt;" style="rhombus;whiteSpace=wrap;html=1;" vertex="1" parent="1">
          <mxGeometry x="33" y="1280" width="175" height="150" as="geometry" />
        </mxCell>
        <mxCell id="-OJPL3VyTxTSW0nCCXy5-33" value="" style="edgeStyle=orthogonalEdgeStyle;rounded=0;orthogonalLoop=1;jettySize=auto;html=1;" edge="1" parent="1" source="-OJPL3VyTxTSW0nCCXy5-20" target="-OJPL3VyTxTSW0nCCXy5-32">
          <mxGeometry relative="1" as="geometry" />
        </mxCell>
        <mxCell id="-OJPL3VyTxTSW0nCCXy5-35" style="edgeStyle=orthogonalEdgeStyle;rounded=0;orthogonalLoop=1;jettySize=auto;html=1;entryX=0;entryY=0.5;entryDx=0;entryDy=0;exitX=0.5;exitY=1;exitDx=0;exitDy=0;" edge="1" parent="1" source="-OJPL3VyTxTSW0nCCXy5-32" target="-OJPL3VyTxTSW0nCCXy5-13">
          <mxGeometry relative="1" as="geometry">
            <Array as="points">
              <mxPoint x="120" y="1690" />
              <mxPoint x="-30" y="1690" />
              <mxPoint x="-30" y="750" />
            </Array>
          </mxGeometry>
        </mxCell>
        <mxCell id="-OJPL3VyTxTSW0nCCXy5-20" value="Record the time taken 100,500,1000th move and compare operation" style="rounded=0;whiteSpace=wrap;html=1;" vertex="1" parent="1">
          <mxGeometry x="50" y="1460" width="140" height="80" as="geometry" />
        </mxCell>
        <mxCell id="-OJPL3VyTxTSW0nCCXy5-32" value="Recursively call quick sort function to sort left and right subarray" style="rounded=0;whiteSpace=wrap;html=1;" vertex="1" parent="1">
          <mxGeometry x="60" y="1580" width="120" height="60" as="geometry" />
        </mxCell>
        <mxCell id="-OJPL3VyTxTSW0nCCXy5-44" value="" style="edgeStyle=orthogonalEdgeStyle;rounded=0;orthogonalLoop=1;jettySize=auto;html=1;" edge="1" parent="1" source="-OJPL3VyTxTSW0nCCXy5-36" target="-OJPL3VyTxTSW0nCCXy5-38">
          <mxGeometry relative="1" as="geometry" />
        </mxCell>
        <mxCell id="-OJPL3VyTxTSW0nCCXy5-36" value="Record total comparison count, move count and sort time taken for entire sort process" style="rounded=0;whiteSpace=wrap;html=1;" vertex="1" parent="1">
          <mxGeometry x="470" y="710" width="150" height="80" as="geometry" />
        </mxCell>
        <mxCell id="-OJPL3VyTxTSW0nCCXy5-45" value="" style="edgeStyle=orthogonalEdgeStyle;rounded=0;orthogonalLoop=1;jettySize=auto;html=1;" edge="1" parent="1" source="-OJPL3VyTxTSW0nCCXy5-38" target="-OJPL3VyTxTSW0nCCXy5-40">
          <mxGeometry relative="1" as="geometry" />
        </mxCell>
        <mxCell id="-OJPL3VyTxTSW0nCCXy5-38" value="Display and write total time taken and operation count for compare, move and sort operation to txt log file" style="rounded=0;whiteSpace=wrap;html=1;" vertex="1" parent="1">
          <mxGeometry x="470" y="829" width="150" height="80" as="geometry" />
        </mxCell>
        <mxCell id="-OJPL3VyTxTSW0nCCXy5-46" value="" style="edgeStyle=orthogonalEdgeStyle;rounded=0;orthogonalLoop=1;jettySize=auto;html=1;" edge="1" parent="1" source="-OJPL3VyTxTSW0nCCXy5-40" target="-OJPL3VyTxTSW0nCCXy5-41">
          <mxGeometry relative="1" as="geometry" />
        </mxCell>
        <mxCell id="-OJPL3VyTxTSW0nCCXy5-40" value="Display and write total time taken for the 100,500,1000th compare and move operation to txt log file" style="rounded=0;whiteSpace=wrap;html=1;" vertex="1" parent="1">
          <mxGeometry x="470" y="969" width="150" height="80" as="geometry" />
        </mxCell>
        <mxCell id="-OJPL3VyTxTSW0nCCXy5-47" value="" style="edgeStyle=orthogonalEdgeStyle;rounded=0;orthogonalLoop=1;jettySize=auto;html=1;" edge="1" parent="1" source="-OJPL3VyTxTSW0nCCXy5-41" target="-OJPL3VyTxTSW0nCCXy5-43">
          <mxGeometry relative="1" as="geometry" />
        </mxCell>
        <mxCell id="-OJPL3VyTxTSW0nCCXy5-41" value="Write the sorted book data to text file" style="rounded=0;whiteSpace=wrap;html=1;" vertex="1" parent="1">
          <mxGeometry x="470" y="1109" width="150" height="80" as="geometry" />
        </mxCell>
        <mxCell id="-OJPL3VyTxTSW0nCCXy5-43" value="End" style="ellipse;whiteSpace=wrap;html=1;" vertex="1" parent="1">
          <mxGeometry x="485" y="1229" width="120" height="80" as="geometry" />
        </mxCell>
        <mxCell id="-OJPL3VyTxTSW0nCCXy5-48" value="False" style="text;html=1;align=center;verticalAlign=middle;resizable=0;points=[];autosize=1;strokeColor=none;fillColor=none;" vertex="1" parent="1">
          <mxGeometry x="160" y="720" width="50" height="30" as="geometry" />
        </mxCell>
        <mxCell id="-OJPL3VyTxTSW0nCCXy5-49" value="True" style="text;html=1;align=center;verticalAlign=middle;resizable=0;points=[];autosize=1;strokeColor=none;fillColor=none;" vertex="1" parent="1">
          <mxGeometry x="120" y="790" width="50" height="30" as="geometry" />
        </mxCell>
        <mxCell id="-OJPL3VyTxTSW0nCCXy5-50" value="True" style="text;html=1;align=center;verticalAlign=middle;resizable=0;points=[];autosize=1;strokeColor=none;fillColor=none;" vertex="1" parent="1">
          <mxGeometry x="117" y="1429" width="50" height="30" as="geometry" />
        </mxCell>
        <mxCell id="-OJPL3VyTxTSW0nCCXy5-51" value="False" style="text;html=1;align=center;verticalAlign=middle;resizable=0;points=[];autosize=1;strokeColor=none;fillColor=none;" vertex="1" parent="1">
          <mxGeometry x="200" y="1320" width="50" height="30" as="geometry" />
        </mxCell>
        <mxCell id="-OJPL3VyTxTSW0nCCXy5-52" value="False" style="text;html=1;align=center;verticalAlign=middle;resizable=0;points=[];autosize=1;strokeColor=none;fillColor=none;" vertex="1" parent="1">
          <mxGeometry x="158" y="280" width="50" height="30" as="geometry" />
        </mxCell>
        <mxCell id="-OJPL3VyTxTSW0nCCXy5-53" value="True" style="text;html=1;align=center;verticalAlign=middle;resizable=0;points=[];autosize=1;strokeColor=none;fillColor=none;" vertex="1" parent="1">
          <mxGeometry x="120" y="360" width="50" height="30" as="geometry" />
        </mxCell>
      </root>
    </mxGraphModel>
  </diagram>
</mxfile>
